<svg xmlns="http://www.w3.org/2000/svg" viewBox="0 0 256.71 344.12"><defs><style>.cls-1{fill:#4290c9;}.cls-2{fill:#3fbde8;}.cls-3{fill:#49abdc;}.cls-4{fill:#191630;}</style></defs><title>APSIntegral-Logo</title><g id="Capa_2" data-name="Capa 2"><path class="cls-1" d="M93.71,38.29q-42,73.32-84.07,146.64H35.36l71.14-123Z" transform="translate(-6.43 -7.73)"/><path class="cls-1" d="M48.9,184.93" transform="translate(-6.43 -7.73)"/><path class="cls-1" d="M74.1,184.93" transform="translate(-6.43 -7.73)"/><path class="cls-2" d="M84.16,184.93" transform="translate(-6.43 -7.73)"/><path class="cls-2" d="M198.21,184.5l14.15-23.57-113.14-.84L84.16,184.93Z" transform="translate(-6.43 -7.73)"/><path class="cls-3" d="M177.26,119.79H151.65Q119.87,63.86,88.07,7.93l27-.2Z" transform="translate(-6.43 -7.73)"/><path class="cls-3" d="M189.64,119.79h27.2L159.21,20.36H133.5Q161.57,70.07,189.64,119.79Z" transform="translate(-6.43 -7.73)"/><path class="cls-1" d="M48.9,184.93H74.1l51.69-89.14L112.5,72.21Z" transform="translate(-6.43 -7.73)"/><path class="cls-2" d="M260.36,127.93l-142.29.31-12.86,23.25,141-.42Z" transform="translate(-6.43 -7.73)"/><path class="cls-2" d="M125.36,151.43" transform="translate(-6.43 -7.73)"/></g><g id="Capa_3" data-name="Capa 3"><path class="cls-4" d="M6.43,299.79l22.93,0q10.28-40.27,20.56-80.55h0q10.61,40.3,21.22,80.59l23.36.41Q78.81,251,63.13,201.86l-26.06.21Q21.76,250.93,6.43,299.79Z" transform="translate(-6.43 -7.73)"/><path class="cls-4" d="M125.84,299.89H103.93q0-48.87-.07-97.75l22.26,0Z" transform="translate(-6.43 -7.73)"/></g><g id="Capa_4" data-name="Capa 4"><path class="cls-4" d="M65.16,276.21l-32.37-.75q1.44-7.87,2.89-15.75l27.94-.42Z" transform="translate(-6.43 -7.73)"/><path class="cls-4" d="M124.27,202.1l20.08.14a39.73,39.73,0,0,1,9.61,1.68,38.67,38.67,0,0,1,14.85,8.3c9.22,9.05,10.53,28.91,1.65,41-10.75,14.67-33.6,14-43.15,13.67-1,0-1.84-.07-2.45-.11V249.21c5.77.26,10.35.19,13.57,0a20.4,20.4,0,0,0,5.62-.85A16.25,16.25,0,0,0,150.5,245c5.18-4.85,4.17-12.55,4.1-13-.15-1-.94-6.51-5.29-9.66-3.2-2.31-8.06-2.4-17.79-2.57-1.37,0-2.89,0-2.9,0-1.86,0-3.37,0-4.33.05Q124.28,210.93,124.27,202.1Z" transform="translate(-6.43 -7.73)"/><path class="cls-4" d="M255.43,213.43l-11.14,13.28a33.66,33.66,0,0,0-11.25-5.6c-1.71-.47-15.38-4.11-20.06,2.18a8.43,8.43,0,0,0-1.54,6c1.75,12.4,32.89,9.51,43.5,28.81a28.32,28.32,0,0,1,3.27,15.29c-.8,11.4-8.64,18.58-10.12,19.88a31.34,31.34,0,0,1-10,5.83c-16.46,6.43-32.65.31-37.39-1.71a55.41,55.41,0,0,1-15.32-9.86L198,272.36a35.94,35.94,0,0,0,13.5,8.14c1.88.62,15.95,5.23,22.08-1.47.34-.38,2.89-3.25,2.42-6.69-.51-3.83-4.49-6.1-9.44-8.84s-6.8-2.76-13.78-5.69c-5.77-2.43-8.65-3.64-11.14-5.38-2.33-1.64-10-7-12.21-16.93a26.41,26.41,0,0,1,.64-13.5c3.24-10.28,11.77-15.25,14.48-16.82a37.11,37.11,0,0,1,20.22-4.72C240.78,200.82,251.86,210.14,255.43,213.43Z" transform="translate(-6.43 -7.73)"/><path class="cls-4" d="M177.35,311.87,189,312a12.82,12.82,0,0,1,6.76,20.57,10.79,10.79,0,0,1-3.29,2.38,18.47,18.47,0,0,1-10.58,2h-4.8v-6.75l7.77-.08a5.7,5.7,0,0,0,4.88-3.62,7.09,7.09,0,0,0-.93-6.1l-.05-.06c-.92-1.17-2.88-1-3.74-1-1.84.09-4.26,0-7.47-.16Q177.44,315.49,177.35,311.87Z" transform="translate(-6.43 -7.73)"/><rect class="cls-4" x="238.82" y="335.77" width="17.89" height="7.66"/><polygon class="cls-4" points="193.61 343.43 184.5 343.43 176.46 328.06 185.04 326.56 193.61 343.43"/><path class="cls-4" d="M209.57,351.16h-8.89l12.11-39.29H223.5l11.89,39.29h-9.1L218,318.75l-.54-.11Z" transform="translate(-6.43 -7.73)"/><polygon class="cls-4" points="204.43 327.2 219.21 327.2 221.14 333.63 204.43 333.63 204.43 327.2"/></g><g id="Capa_5" data-name="Capa 5"><rect class="cls-4" x="3.18" y="304.3" width="8.23" height="39.13"/><path class="cls-4" d="M27.21,312.11v39l8.31.1a113.56,113.56,0,0,0,.18-14.76c-.35-6.47-1.31-13.78-1.07-13.82,0,0,.1.17.14.33.5,1.32,1.37,3.54,2.59,6.22,2.34,5.17,4,7.8,7.48,14.35.89,1.69,2.25,4.32,3.85,7.62l9-.15q0-19.56-.1-39.11l-8.28.13c-.08,5.08,0,10.45.27,16.07q.33,6.59.93,12.62-2.19-5.08-4.71-10.39c-3.11-6.52-6.32-12.62-9.53-18.29Z" transform="translate(-6.43 -7.73)"/><path class="cls-4" d="M63.64,312l30.11-.11-.21,7.4-10.4-.11L82.93,351l-8.67.16q0-15.82-.07-31.66l-10.55-.21Z" transform="translate(-6.43 -7.73)"/><path class="cls-4" d="M123.64,312l-24.37-.13v39.29l25-.05c0-2.47-.08-4.93-.11-7.4H108.11l.21-9,12.86-.07v-7.5l-13,.1q0-3.85-.1-7.72l15.53-.2Z" transform="translate(-6.43 -7.73)"/><path class="cls-4" d="M161.25,316.18l-4.95,6a9.45,9.45,0,0,0-13.69-.94c-3.53,3.13-3.47,7.82-3.43,10.29,0,2.1.1,7.07,3.8,10.21a10.43,10.43,0,0,0,5.19,2.31,10.29,10.29,0,0,0,5.85-1l-.15-6.83-6-.08c0-2.33,0-4.66.08-7l13.87.11v17.57a19.9,19.9,0,0,1-6.59,3.92c-.86.3-9.8,3.29-17.2-2a18.45,18.45,0,0,1-6-7.61,22,22,0,0,1-1.93-9.43c0-2.47.15-10.68,6.83-16.21a19.19,19.19,0,0,1,15.19-4A18.55,18.55,0,0,1,161.25,316.18Z" transform="translate(-6.43 -7.73)"/><path class="cls-4" d="M170,311.87v39.29H178V311.79Z" transform="translate(-6.43 -7.73)"/><rect class="cls-4" x="232.82" y="304.14" width="8.46" height="39.29"/></g></svg>