<svg xmlns="http://www.w3.org/2000/svg" viewBox="0 0 515.79 177.62"><defs><style>.cls-1{fill:#4290c9;}.cls-2{fill:#3fbde8;}.cls-3{fill:#49abdc;}.cls-4{fill:#191630;}</style></defs><title>APS Integral Logo Horizontal</title><g id="Capa_2" data-name="Capa 2"><path class="cls-1" d="M89.85,37.64,5.79,184.29H31.5l71.14-123Q96.25,49.46,89.85,37.64Z" transform="translate(-5.79 -7.09)"/><path class="cls-1" d="M45,184.29" transform="translate(-5.79 -7.09)"/><path class="cls-1" d="M70.24,184.29" transform="translate(-5.79 -7.09)"/><path class="cls-2" d="M80.3,184.29" transform="translate(-5.79 -7.09)"/><path class="cls-2" d="M194.36,183.86l14.14-23.57-113.14-.84L80.3,184.29Z" transform="translate(-5.79 -7.09)"/><path class="cls-3" d="M173.4,119.14H147.8L84.21,7.29l27-.2Q142.3,63.11,173.4,119.14Z" transform="translate(-5.79 -7.09)"/><path class="cls-3" d="M185.79,119.14H213L155.36,19.71H129.64Z" transform="translate(-5.79 -7.09)"/><path class="cls-1" d="M45,184.29h25.2l51.69-89.15L108.64,71.57Z" transform="translate(-5.79 -7.09)"/><path class="cls-2" d="M256.5,127.29l-142.29.31-12.85,23.25,141-.42Q249.43,138.85,256.5,127.29Z" transform="translate(-5.79 -7.09)"/><path class="cls-2" d="M121.5,150.79" transform="translate(-5.79 -7.09)"/></g><g id="Capa_3" data-name="Capa 3"><path class="cls-4" d="M264.86,132.64l22.93,0q10.27-40.28,20.56-80.55h0l21.22,80.59,23.36.41Q337.24,83.9,321.56,34.71l-26.06.22Q280.19,83.79,264.86,132.64Z" transform="translate(-5.79 -7.09)"/><path class="cls-4" d="M384.27,132.75H362.36q0-48.87-.07-97.75l22.26,0Z" transform="translate(-5.79 -7.09)"/></g><g id="Capa_4" data-name="Capa 4"><path class="cls-4" d="M323.59,109.07l-32.38-.75q1.46-7.87,2.9-15.75l27.94-.43Z" transform="translate(-5.79 -7.09)"/><path class="cls-4" d="M382.7,35l20.08.13a40.41,40.41,0,0,1,9.61,1.69c6.16,1.89,11.73,5.23,14.85,8.29,9.22,9.06,10.53,28.91,1.65,41-10.75,14.67-33.61,14-43.15,13.67-1,0-1.84-.08-2.45-.12V82.07c5.77.26,10.35.18,13.57.05a20.79,20.79,0,0,0,5.62-.85,16.17,16.17,0,0,0,6.45-3.47c5.18-4.84,4.17-12.54,4.1-13-.15-1-.94-6.51-5.29-9.66-3.2-2.32-8.06-2.4-17.8-2.57-1.36,0-2.89,0-2.89,0-1.86,0-3.37,0-4.34.06Q382.71,43.78,382.7,35Z" transform="translate(-5.79 -7.09)"/><path class="cls-4" d="M513.86,46.29q-5.58,6.63-11.15,13.28A33.47,33.47,0,0,0,491.46,54c-1.7-.48-15.37-4.11-20,2.17a8.46,8.46,0,0,0-1.54,6c1.75,12.39,32.89,9.51,43.5,28.8a28.37,28.37,0,0,1,3.27,15.3c-.8,11.4-8.64,18.57-10.12,19.87a31.21,31.21,0,0,1-10,5.84c-16.47,6.43-32.65.31-37.39-1.71a55.41,55.41,0,0,1-15.32-9.86l12.64-15.22a36,36,0,0,0,13.5,8.15c1.88.61,15.95,5.23,22.08-1.47.34-.38,2.89-3.25,2.42-6.69-.52-3.84-4.49-6.1-9.44-8.84s-6.8-2.76-13.79-5.69c-5.76-2.43-8.64-3.64-11.13-5.38-2.33-1.64-10-7-12.21-16.93a26.41,26.41,0,0,1,.64-13.5C451.74,44.58,460.26,39.61,463,38a37.14,37.14,0,0,1,20.23-4.72C499.21,33.68,510.29,43,513.86,46.29Z" transform="translate(-5.79 -7.09)"/><path class="cls-4" d="M435.78,144.72l11.61.08a12.25,12.25,0,0,1,9.66,12.94,12.5,12.5,0,0,1-2.9,7.63,10.74,10.74,0,0,1-3.29,2.38,18.3,18.3,0,0,1-10.58,2h-4.8V163l7.77-.08a5.67,5.67,0,0,0,4.88-3.61,7.08,7.08,0,0,0-.93-6.1l-.05-.06c-.92-1.17-2.88-1-3.75-1-1.83.09-4.25,0-7.46-.16Q435.85,148.33,435.78,144.72Z" transform="translate(-5.79 -7.09)"/><rect class="cls-4" x="497.89" y="169.27" width="17.89" height="7.66"/><polygon class="cls-4" points="452.68 176.93 443.57 176.93 435.54 161.56 444.11 160.06 452.68 176.93"/><path class="cls-4" d="M468,184h-8.89l12.1-39.3h10.72L493.82,184h-9.11l-8.25-32.41-.53-.11Z" transform="translate(-5.79 -7.09)"/><polygon class="cls-4" points="463.5 160.7 478.29 160.7 480.21 167.13 463.5 167.13 463.5 160.7"/></g><g id="Capa_5" data-name="Capa 5"><rect class="cls-4" x="262.25" y="137.8" width="8.23" height="39.13"/><path class="cls-4" d="M285.64,145v39l8.31.11a113.71,113.71,0,0,0,.18-14.77c-.35-6.46-1.31-13.78-1.07-13.81,0,0,.09.16.14.32.5,1.33,1.37,3.54,2.59,6.23,2.34,5.17,4,7.79,7.48,14.34.89,1.7,2.25,4.33,3.85,7.63l8.95-.15q0-19.56-.11-39.11l-8.27.12c-.08,5.08,0,10.45.27,16.08.21,4.38.53,8.6.93,12.62q-2.19-5.08-4.71-10.39c-3.11-6.52-6.32-12.62-9.54-18.3Z" transform="translate(-5.79 -7.09)"/><path class="cls-4" d="M322.07,144.86l30.11-.11c-.07,2.46-.14,4.93-.22,7.39l-10.39-.1-.21,31.82-8.67.16q0-15.84-.07-31.66l-10.55-.22Z" transform="translate(-5.79 -7.09)"/><path class="cls-4" d="M382.07,144.86l-24.37-.14V184l25-.06c0-2.46-.07-4.92-.1-7.39H366.54l.21-9,12.86-.08V160l-13,.11c0-2.57-.06-5.15-.1-7.72l15.53-.21Z" transform="translate(-5.79 -7.09)"/><path class="cls-4" d="M419.68,149l-4.95,6a9.45,9.45,0,0,0-13.69-.94c-3.53,3.13-3.47,7.82-3.43,10.29,0,2.1.1,7.06,3.8,10.21a10.38,10.38,0,0,0,5.19,2.3,10.19,10.19,0,0,0,5.84-1l-.14-6.83-6-.08c0-2.33.05-4.66.08-7l13.86.11v17.57a19.83,19.83,0,0,1-6.58,3.92c-.87.3-9.8,3.28-17.2-2a18.45,18.45,0,0,1-6-7.61,22.09,22.09,0,0,1-1.93-9.43c0-2.48.15-10.68,6.83-16.22.76-.63,6.92-5.56,15.19-4A18.54,18.54,0,0,1,419.68,149Z" transform="translate(-5.79 -7.09)"/><path class="cls-4" d="M428.46,144.72V184h7.92V144.64Z" transform="translate(-5.79 -7.09)"/><rect class="cls-4" x="491.89" y="137.64" width="8.46" height="39.29"/></g></svg>